<?xml version="1.0" standalone="no"?>
<!DOCTYPE svg PUBLIC "-//W3C//DTD SVG 20010904//EN"
 "http://www.w3.org/TR/2001/REC-SVG-20010904/DTD/svg10.dtd">
<svg version="1.0" xmlns="http://www.w3.org/2000/svg"
 width="290.000000pt" height="290.000000pt" viewBox="0 0 290.000000 290.000000"
 preserveAspectRatio="xMidYMid meet">

<g transform="translate(0.000000,290.000000) scale(0.100000,-0.100000)"
fill="#000000" stroke="none">
<path d="M2555 2303 c-364 -46 -652 -183 -861 -406 -146 -157 -264 -360 -422
-729 -133 -306 -177 -383 -275 -476 -31 -28 -50 -52 -43 -52 25 0 157 49 218
82 78 41 227 186 290 283 25 39 101 167 169 285 208 366 274 463 419 614 155
162 335 280 565 371 39 15 72 29 74 31 5 5 -91 3 -134 -3z"/>
<path d="M173 2228 c3 -7 43 -74 90 -148 l85 -135 333 -5 c361 -6 375 -8 478
-67 90 -52 190 -170 206 -243 4 -17 10 -30 13 -30 4 0 26 33 49 74 23 40 65
104 93 141 l50 67 -35 48 c-77 105 -200 199 -325 248 -140 54 -145 55 -609 59
-357 4 -433 2 -428 -9z"/>
<path d="M2499 2127 c-143 -72 -227 -132 -264 -189 -16 -26 -104 -167 -194
-313 -90 -146 -167 -265 -170 -265 -3 0 -17 16 -29 36 -20 31 -26 34 -37 23
-16 -17 -155 -269 -155 -281 0 -21 115 -201 138 -216 29 -19 117 -21 148 -4
12 6 101 145 200 308 l179 298 3 -442 2 -442 155 0 155 0 -2 767 c-2 500 -6
767 -13 770 -5 1 -58 -21 -116 -50z"/>
<path d="M330 1240 l0 -600 214 0 213 0 71 35 c83 42 168 128 221 225 l34 63
-29 -8 c-16 -4 -118 -9 -226 -12 l-198 -5 0 451 0 451 -150 0 -150 0 0 -600z"/>
</g>
</svg>
